<!-- Generated by IcoMoon.io -->
<svg version="1.1" xmlns="http://www.w3.org/2000/svg" width="30" height="32" viewBox="0 0 30 32">
<title>img2</title>
<path fill="#ec5863" d="M14.784 0.28c-2.559 0-4.091 0.388-5.064 0.873-0.487 0.243-0.834 0.498-1.066 0.759-0.234 0.261-0.381 0.645-0.381 0.645-0.038 0.098-0.064 0.2-0.076 0.303l-0.648 8.308c-0.009 0.051 0.008 0.134 0 0.189l-0.076 0.835c-0.007 0.075-0.007 0.152 0 0.227 0 4.006 3.29 7.283 7.311 7.283s7.311-3.278 7.311-7.283v-0.189c0-0.013 0-0.025 0-0.038l-0.724-9.333c-0.012-0.104-0.037-0.206-0.076-0.303 0 0-0.147-0.384-0.381-0.645-0.233-0.262-0.579-0.517-1.066-0.759-0.974-0.486-2.505-0.873-5.064-0.873zM14.784 19.702c-8.042 0-14.623 3.77-14.623 7.169v4.97h29.245v-4.97c0-3.229-5.949-6.786-13.442-7.132-0.393-0.026-0.787-0.038-1.181-0.038zM14.784 2.708c2.315 0 3.472 0.364 3.96 0.607 0.163 0.081 0.183 0.113 0.229 0.152l0.495 6.221c-1.121 0.068-2.649 0.303-4.684 0.303s-3.562-0.236-4.684-0.303l0.495-6.221c0.045-0.039 0.066-0.070 0.229-0.152 0.489-0.243 1.645-0.607 3.96-0.607zM13.793 3.922v1.442h-1.446v1.973h1.448v1.441h1.979v-1.442h1.448v-1.971h-1.448v-1.442h-1.98zM11.128 22.434l3.123 6.98h-11.653v-2.542c0-0.904 3.107-3.553 8.53-4.438zM18.439 22.434c5.423 0.886 8.53 3.534 8.53 4.438v2.542h-11.653l3.123-6.98z"></path>
</svg>
