<!-- Generated by IcoMoon.io -->
<svg version="1.1" xmlns="http://www.w3.org/2000/svg" width="39" height="32" viewBox="0 0 39 32">
<title>img3</title>
<path fill="#ec5863" d="M10.775 0.424c-2.795 0-5.476 1.097-7.452 3.049s-3.087 4.6-3.087 7.361c0 0.946 0.172 1.893 0.422 2.839h7.818l2.434-6.379c0.575-1.514 2.836-1.666 3.564 0l3.967 10.164 1.131-2.688c0.249-0.625 0.92-1.098 1.744-1.098h16.825c0.249-0.946 0.422-1.893 0.422-2.839 0-2.761-1.11-5.409-3.087-7.361s-4.657-3.049-7.452-3.049c-3.564 0-6.707 1.76-8.623 4.429-1.916-2.669-5.059-4.429-8.623-4.429zM2.152 16.513c-0.508 0-0.996 0.199-1.355 0.554s-0.561 0.836-0.561 1.338c0 0.502 0.202 0.983 0.561 1.338s0.847 0.554 1.355 0.554h4.676l10.654 10.41c1.916 1.703 1.916 1.703 3.832 0l10.654-10.41h4.676c0.508 0 0.996-0.199 1.355-0.554s0.561-0.836 0.561-1.338c0-0.502-0.202-0.983-0.561-1.338s-0.847-0.554-1.355-0.554h-14.563l-1.782 4.353c-0.767 1.912-2.97 1.647-3.679 0.057l-3.928-10.088-1.84 4.41c-0.287 0.719-0.939 1.268-1.801 1.268h-6.898z"></path>
</svg>
